# xmcd CD database file
#
# Track frame offsets:
#	150
#	11068
#	28302
#	47498
#	58238
#	64421
#	83965
#	100096
#	111884
#	144647
#	167308
#	188886
#
# Disc length: 2811 seconds
#
# Revision: 0
# Processed by: cddbd v1.5.2PL0 Copyright (c) Steve Scherf et al.
# Submitted via: CDex 1.51
#
DISCID=a50af90c
DTITLE=Tim Wheater and David Lord  - SoulStorm
DYEAR=2008
DGENRE=New Age
TTITLE0=The Source
TTITLE1=Calling
TTITLE2=Question of Faith
TTITLE3=Light on Water
TTITLE4=Spirit Journey
TTITLE5=Soulstorm
TTITLE6=Imprint of Love
TTITLE7=Spectrum Speed
TTITLE8=Dance to the Centre
TTITLE9=Weaving the Heartbeat
TTITLE10=Wonderlife
TTITLE11=Inner State of Being
EXTD=YEAR: 2008
EXTT0=
EXTT1=
EXTT2=
EXTT3=
EXTT4=
EXTT5=
EXTT6=
EXTT7=
EXTT8=
EXTT9=
EXTT10=
EXTT11=
PLAYORDER=
